<?xml version="1.0" encoding="UTF-8"?>
<svg id="Layer_1" data-name="Layer 1" xmlns="http://www.w3.org/2000/svg" width="1920" height="1080" viewBox="0 0 1920 1080">
  <defs>
    <style>
      .cls-1 {
        fill: #242423;
      }

      .cls-2 {
        fill: #15a698;
      }

      .cls-3 {
        fill: #1a1919;
      }

      .cls-4 {
        fill: #e8ebe3;
      }
    </style>
  </defs>
  <rect class="cls-4" x="590.96" width="1329.04" height="768.4"/>
  <path class="cls-2" d="m996.58,789.78c-.49,0-.97,0-1.46,0-4.55,3.84-10.15,6.35-16.1,7.11-3.15,1.14-6.42,1.75-9.45,1.75-6.97,0-16.19-3.4-20.87-9.3-7.43-9.37-12.34-21.29-8.79-33.84,2.25-7.98,6.8-15.28,13.3-19.95,2.2-5.86,4.74-11.64,7.18-17.53,5.94-15.77,11.04-31.85,17.16-47.56,0-.01,0-.02,0-.03-.66,1.68-1.31,3.35-1.97,5.03.75-1.97,1.43-3.92,1.98-5.91.1-10.32,5.01-19.03,12.23-24.56-1.03-3.17-1.66-6.54-1.8-10.02-.64-15.38,11.19-28.71,24.77-31.3V214.87c0-63.28-38.62-214.87-97.43-214.87H396.26v1080h616.49v-287.44c-5.59.74-11.16-.25-16.17-2.79Z"/>
  <path class="cls-1" d="m833,1080H0V0h739.35c51.72,0,93.65,96.09,93.65,147.81v932.19Z"/>
  <rect class="cls-3" y="765.34" width="1920" height="314.66"/>
</svg>