<?xml version="1.0" encoding="utf-8"?>
<!-- Generator: Adobe Illustrator 27.3.1, SVG Export Plug-In . SVG Version: 6.00 Build 0)  -->
<svg version="1.1" id="Layer_1" xmlns="http://www.w3.org/2000/svg" xmlns:xlink="http://www.w3.org/1999/xlink" x="0px" y="0px"
	 viewBox="0 0 170.81 32" style="enable-background:new 0 0 170.81 32;" xml:space="preserve">
<style type="text/css">
	.st0{fill:#CA3ED7;}
	.st1{fill:#95B8D1;}
	.st2{fill:#41D667;}
	.st3{fill:#00EDFF;}
</style>
<path class="st0" d="M10.81,8.77l-0.18,0.18C10.68,8.88,10.74,8.82,10.81,8.77z"/>
<path class="st1" d="M14.54,3.6c-0.55,0-1,0.44-1,1c0,0.16,0.04,0.31,0.1,0.44l-1.7,1.7H6.64v5.05H6.9l-2.58,2.58
	c-0.14-0.07-0.29-0.11-0.46-0.11c-0.55,0-1,0.44-1,1c0,0.55,0.44,1,1,1c0.55,0,1-0.44,1-1c0-0.16-0.03-0.3-0.1-0.44l3.03-3.03l0,0
	l2.04-2.04C9.77,9.59,9.74,9.43,9.74,9.25c0-0.76,0.62-1.38,1.38-1.38c0.17,0,0.33,0.03,0.49,0.09l1.23-1.23l0,0l1.25-1.25
	c0.14,0.07,0.29,0.1,0.44,0.1c0.55,0,1-0.44,1-1C15.53,4.04,15.08,3.6,14.54,3.6z M3.87,15.56c-0.18,0-0.32-0.14-0.32-0.32
	c0-0.18,0.14-0.32,0.32-0.32s0.32,0.14,0.32,0.32C4.19,15.42,4.04,15.56,3.87,15.56z M14.54,4.91c-0.18,0-0.32-0.14-0.32-0.32
	c0-0.18,0.14-0.32,0.32-0.32c0.18,0,0.32,0.14,0.32,0.32C14.85,4.77,14.71,4.91,14.54,4.91z"/>
<path class="st1" d="M12.25,20.56v2.73l-1.58,1.58c-0.14-0.07-0.29-0.1-0.44-0.1c-0.55,0-1,0.44-1,1c0,0.55,0.44,1,1,1
	c0.55,0,1-0.44,1-1c0-0.16-0.04-0.31-0.1-0.44l1.14-1.14l0,0l1.65-1.65c-0.01-0.08-0.02-0.17-0.02-0.25c0-0.76,0.62-1.38,1.38-1.38
	c0.09,0,0.17,0.01,0.25,0.02l1.78-1.78v-3.62L12.25,20.56z M10.22,26.08c-0.18,0-0.32-0.14-0.32-0.32c0-0.18,0.14-0.32,0.32-0.32
	c0.18,0,0.32,0.14,0.32,0.32C10.54,25.93,10.4,26.08,10.22,26.08z"/>
<path class="st1" d="M21.43,16.58c-0.55,0-1,0.44-1,1c0,0.16,0.04,0.31,0.1,0.44l-3.87,3.87l0,0l-0.08,0.08
	c0.02,0.1,0.03,0.2,0.03,0.31c0,0.76-0.62,1.38-1.38,1.38c-0.11,0-0.21-0.01-0.31-0.03l-1.73,1.73h4.08v-3.2l3.7-3.7
	c0.14,0.07,0.29,0.1,0.44,0.1c0.55,0,1-0.44,1-1C22.43,17.03,21.99,16.58,21.43,16.58z M21.43,17.89c-0.18,0-0.32-0.14-0.32-0.32
	c0-0.18,0.14-0.32,0.32-0.32s0.32,0.14,0.32,0.32S21.61,17.89,21.43,17.89z"/>
<path class="st1" d="M15.87,6.74l3.39-3.39c0.14,0.07,0.29,0.11,0.46,0.11c0.55,0,1-0.44,1-1c0-0.55-0.44-1-1-1c-0.55,0-1,0.44-1,1
	c0,0.16,0.03,0.3,0.1,0.43l-4.04,4.04l0,0L12.51,9.2c0,0.01,0,0.03,0,0.05c0,0.76-0.62,1.38-1.38,1.38c-0.01,0-0.03,0-0.05,0
	l-1.14,1.14h2.31v6.64l5.05-5.05v-1.59h5.61V6.72h-7.03V6.74z M19.72,2.15c0.18,0,0.32,0.14,0.32,0.32c0,0.18-0.14,0.32-0.32,0.32
	s-0.32-0.14-0.32-0.32S19.54,2.15,19.72,2.15z"/>
<circle class="st2" cx="15.26" cy="22.28" r="0.59"/>
<circle class="st3" cx="15.26" cy="22.28" r="0.59"/>
<path class="st2" d="M11.12,9.84c-0.32,0-0.59-0.26-0.59-0.59c0-0.12,0.03-0.23,0.1-0.31c0.05-0.07,0.1-0.13,0.18-0.18
	c0.09-0.06,0.2-0.1,0.31-0.1c0.32,0,0.59,0.26,0.59,0.59C11.71,9.58,11.45,9.84,11.12,9.84z"/>
<path class="st3" d="M11.71,9.26c0,0.32-0.26,0.59-0.59,0.59c-0.32,0-0.59-0.26-0.59-0.59c0-0.12,0.03-0.23,0.1-0.31
	c0.05-0.07,0.1-0.13,0.18-0.18c0.09-0.06,0.2-0.1,0.31-0.1C11.45,8.67,11.71,8.94,11.71,9.26z"/>
<g>
	<g>
		<path class="st1" d="M41.6,18.12l-1.68,1.68l1.68,5.61h-5.5l-1.44-4.8h-6.48v4.8h-5.28V6.71H39.1l2.5,2.5V18.12z M28.17,15.34
			h8.15v-3.35h-8.15V15.34z"/>
		<path class="st1" d="M43.19,25.42V6.71h5.28v18.7H43.19z"/>
		<path class="st1" d="M68.77,22.92l-2.5,2.5H50.06V6.71h16.21l2.5,2.5V22.92z M55.34,20.14h8.15v-8.15h-8.15V20.14z"/>
		<path class="st1" d="M70.36,25.42V6.71h5.28v18.7H70.36z"/>
		<path class="st1" d="M82.51,11.99v8.15h8.15v-5.76h5.28v8.54l-2.5,2.5H79.74l-2.5-2.5V9.21l2.5-2.5h16.21v5.28H82.51z"/>
		<path class="st1" d="M97.53,25.42V6.71h5.28v18.7H97.53z"/>
		<path class="st1" d="M115.92,11.99v13.43h-5.28V11.99h-6.24V6.71h17.74v5.28H115.92z"/>
		<path class="st1" d="M142.45,25.42h-5.28v-4.8h-8.15v4.8h-5.28V9.21l2.5-2.5h13.7l2.51,2.5V25.42z M129.02,15.34h8.15v-3.35h-8.15
			V15.34z"/>
		<path class="st1" d="M160.82,20.14v5.28h-16.78V6.71h5.28v13.43H160.82z"/>
	</g>
</g>
</svg>
